OFF
28 30 0
0 0 0.
0.5 0 0.
1 0 0.
0 0.1 0.
1 0.1 0.
0 0.2 0.
0.5 0.2 0.
1 0.2 0.
0 0.3 0.
1 0.3 0.
0 0.4 0.
0.5 0.4 0.
1 0.4 0.
0 0.5 0.
1 0.5 0.
0 0.6 0.
0.5 0.6 0.
1 0.6 0.
0 0.7 0.
1 0.7 0.
0 0.8 0.
0.5 0.8 0.
1 0.8 0.
0 0.9 0.
1 0.9 0.
0 1 0.
0.5 1 0.
1 1 0.
3 0 1 3
3 3 6 5
3 1 4 3
3 3 4 6
3 1 2 4
3 4 7 6
3 5 6 8
3 8 11 10
3 6 9 8
3 8 9 11
3 6 7 9
3 9 12 11
3 10 11 13
3 13 16 15
3 11 14 13
3 13 14 16
3 11 12 14
3 14 17 16
3 15 16 18
3 18 21 20
3 16 19 18
3 18 19 21
3 16 17 19
3 19 22 21
3 20 21 23
3 23 26 25
3 21 24 23
3 23 24 26
3 21 22 24
3 24 27 26
