OFF
144 200 0
0 0 0.
0.25 0 0.
0.75 0 0.
1 0 0.
0 0.025 0.
0.5 0.025 0.
1 0.025 0.
0 0.05 0.
0.25 0.05 0.
0.75 0.05 0.
1 0.05 0.
0 0.075 0.
0.5 0.075 0.
1 0.075 0.
0 0.1 0.
0.25 0.1 0.
0.75 0.1 0.
1 0.1 0.
0 0.125 0.
0.5 0.125 0.
1 0.125 0.
0 0.15 0.
0.25 0.15 0.
0.75 0.15 0.
1 0.15 0.
0 0.175 0.
0.5 0.175 0.
1 0.175 0.
0 0.2 0.
0.25 0.2 0.
0.75 0.2 0.
1 0.2 0.
0 0.225 0.
0.5 0.225 0.
1 0.225 0.
0 0.25 0.
0.25 0.25 0.
0.75 0.25 0.
1 0.25 0.
0 0.275 0.
0.5 0.275 0.
1 0.275 0.
0 0.3 0.
0.25 0.3 0.
0.75 0.3 0.
1 0.3 0.
0 0.325 0.
0.5 0.325 0.
1 0.325 0.
0 0.35 0.
0.25 0.35 0.
0.75 0.35 0.
1 0.35 0.
0 0.375 0.
0.5 0.375 0.
1 0.375 0.
0 0.4 0.
0.25 0.4 0.
0.75 0.4 0.
1 0.4 0.
0 0.425 0.
0.5 0.425 0.
1 0.425 0.
0 0.45 0.
0.25 0.45 0.
0.75 0.45 0.
1 0.45 0.
0 0.475 0.
0.5 0.475 0.
1 0.475 0.
0 0.5 0.
0.25 0.5 0.
0.75 0.5 0.
1 0.5 0.
0 0.525 0.
0.5 0.525 0.
1 0.525 0.
0 0.55 0.
0.25 0.55 0.
0.75 0.55 0.
1 0.55 0.
0 0.575 0.
0.5 0.575 0.
1 0.575 0.
0 0.6 0.
0.25 0.6 0.
0.75 0.6 0.
1 0.6 0.
0 0.625 0.
0.5 0.625 0.
1 0.625 0.
0 0.65 0.
0.25 0.65 0.
0.75 0.65 0.
1 0.65 0.
0 0.675 0.
0.5 0.675 0.
1 0.675 0.
0 0.7 0.
0.25 0.7 0.
0.75 0.7 0.
1 0.7 0.
0 0.725 0.
0.5 0.725 0.
1 0.725 0.
0 0.75 0.
0.25 0.75 0.
0.75 0.75 0.
1 0.75 0.
0 0.775 0.
0.5 0.775 0.
1 0.775 0.
0 0.8 0.
0.25 0.8 0.
0.75 0.8 0.
1 0.8 0.
0 0.825 0.
0.5 0.825 0.
1 0.825 0.
0 0.85 0.
0.25 0.85 0.
0.75 0.85 0.
1 0.85 0.
0 0.875 0.
0.5 0.875 0.
1 0.875 0.
0 0.9 0.
0.25 0.9 0.
0.75 0.9 0.
1 0.9 0.
0 0.925 0.
0.5 0.925 0.
1 0.925 0.
0 0.95 0.
0.25 0.95 0.
0.75 0.95 0.
1 0.95 0.
0 0.975 0.
0.5 0.975 0.
1 0.975 0.
0 1 0.
0.25 1 0.
0.75 1 0.
1 1 0.
3 0 1 4
3 4 8 7
3 1 5 4
3 4 5 8
3 2 6 5
3 5 6 9
3 1 2 5
3 5 9 8
3 2 3 6
3 6 10 9
3 7 8 11
3 11 15 14
3 8 12 11
3 11 12 15
3 9 13 12
3 12 13 16
3 8 9 12
3 12 16 15
3 9 10 13
3 13 17 16
3 14 15 18
3 18 22 21
3 15 19 18
3 18 19 22
3 16 20 19
3 19 20 23
3 15 16 19
3 19 23 22
3 16 17 20
3 20 24 23
3 21 22 25
3 25 29 28
3 22 26 25
3 25 26 29
3 23 27 26
3 26 27 30
3 22 23 26
3 26 30 29
3 23 24 27
3 27 31 30
3 28 29 32
3 32 36 35
3 29 33 32
3 32 33 36
3 30 34 33
3 33 34 37
3 29 30 33
3 33 37 36
3 30 31 34
3 34 38 37
3 35 36 39
3 39 43 42
3 36 40 39
3 39 40 43
3 37 41 40
3 40 41 44
3 36 37 40
3 40 44 43
3 37 38 41
3 41 45 44
3 42 43 46
3 46 50 49
3 43 47 46
3 46 47 50
3 44 48 47
3 47 48 51
3 43 44 47
3 47 51 50
3 44 45 48
3 48 52 51
3 49 50 53
3 53 57 56
3 50 54 53
3 53 54 57
3 51 55 54
3 54 55 58
3 50 51 54
3 54 58 57
3 51 52 55
3 55 59 58
3 56 57 60
3 60 64 63
3 57 61 60
3 60 61 64
3 58 62 61
3 61 62 65
3 57 58 61
3 61 65 64
3 58 59 62
3 62 66 65
3 63 64 67
3 67 71 70
3 64 68 67
3 67 68 71
3 65 69 68
3 68 69 72
3 64 65 68
3 68 72 71
3 65 66 69
3 69 73 72
3 70 71 74
3 74 78 77
3 71 75 74
3 74 75 78
3 72 76 75
3 75 76 79
3 71 72 75
3 75 79 78
3 72 73 76
3 76 80 79
3 77 78 81
3 81 85 84
3 78 82 81
3 81 82 85
3 79 83 82
3 82 83 86
3 78 79 82
3 82 86 85
3 79 80 83
3 83 87 86
3 84 85 88
3 88 92 91
3 85 89 88
3 88 89 92
3 86 90 89
3 89 90 93
3 85 86 89
3 89 93 92
3 86 87 90
3 90 94 93
3 91 92 95
3 95 99 98
3 92 96 95
3 95 96 99
3 93 97 96
3 96 97 100
3 92 93 96
3 96 100 99
3 93 94 97
3 97 101 100
3 98 99 102
3 102 106 105
3 99 103 102
3 102 103 106
3 100 104 103
3 103 104 107
3 99 100 103
3 103 107 106
3 100 101 104
3 104 108 107
3 105 106 109
3 109 113 112
3 106 110 109
3 109 110 113
3 107 111 110
3 110 111 114
3 106 107 110
3 110 114 113
3 107 108 111
3 111 115 114
3 112 113 116
3 116 120 119
3 113 117 116
3 116 117 120
3 114 118 117
3 117 118 121
3 113 114 117
3 117 121 120
3 114 115 118
3 118 122 121
3 119 120 123
3 123 127 126
3 120 124 123
3 123 124 127
3 121 125 124
3 124 125 128
3 120 121 124
3 124 128 127
3 121 122 125
3 125 129 128
3 126 127 130
3 130 134 133
3 127 131 130
3 130 131 134
3 128 132 131
3 131 132 135
3 127 128 131
3 131 135 134
3 128 129 132
3 132 136 135
3 133 134 137
3 137 141 140
3 134 138 137
3 137 138 141
3 135 139 138
3 138 139 142
3 134 135 138
3 138 142 141
3 135 136 139
3 139 143 142
