OFF
886 1440 0
0 0 0.
0.125 0 0.
0.375 0 0.
0.625 0 0.
0.875 0 0.
1 0 0.
0 0.00625 0.
0.25 0.00625 0.
0.5 0.00625 0.
0.75 0.00625 0.
1 0.00625 0.
0 0.0125 0.
0.125 0.0125 0.
0.375 0.0125 0.
0.625 0.0125 0.
0.875 0.0125 0.
1 0.0125 0.
0 0.01875 0.
0.25 0.01875 0.
0.5 0.01875 0.
0.75 0.01875 0.
1 0.01875 0.
0 0.025 0.
0.125 0.025 0.
0.375 0.025 0.
0.625 0.025 0.
0.875 0.025 0.
1 0.025 0.
0 0.03125 0.
0.25 0.03125 0.
0.5 0.03125 0.
0.75 0.03125 0.
1 0.03125 0.
0 0.0375 0.
0.125 0.0375 0.
0.375 0.0375 0.
0.625 0.0375 0.
0.875 0.0375 0.
1 0.0375 0.
0 0.04375 0.
0.25 0.04375 0.
0.5 0.04375 0.
0.75 0.04375 0.
1 0.04375 0.
0 0.05 0.
0.125 0.05 0.
0.375 0.05 0.
0.625 0.05 0.
0.875 0.05 0.
1 0.05 0.
0 0.05625 0.
0.25 0.05625 0.
0.5 0.05625 0.
0.75 0.05625 0.
1 0.05625 0.
0 0.0625 0.
0.125 0.0625 0.
0.375 0.0625 0.
0.625 0.0625 0.
0.875 0.0625 0.
1 0.0625 0.
0 0.06875 0.
0.25 0.06875 0.
0.5 0.06875 0.
0.75 0.06875 0.
1 0.06875 0.
0 0.075 0.
0.125 0.075 0.
0.375 0.075 0.
0.625 0.075 0.
0.875 0.075 0.
1 0.075 0.
0 0.08125 0.
0.25 0.08125 0.
0.5 0.08125 0.
0.75 0.08125 0.
1 0.08125 0.
0 0.0875 0.
0.125 0.0875 0.
0.375 0.0875 0.
0.625 0.0875 0.
0.875 0.0875 0.
1 0.0875 0.
0 0.09375 0.
0.25 0.09375 0.
0.5 0.09375 0.
0.75 0.09375 0.
1 0.09375 0.
0 0.1 0.
0.125 0.1 0.
0.375 0.1 0.
0.625 0.1 0.
0.875 0.1 0.
1 0.1 0.
0 0.10625 0.
0.25 0.10625 0.
0.5 0.10625 0.
0.75 0.10625 0.
1 0.10625 0.
0 0.1125 0.
0.125 0.1125 0.
0.375 0.1125 0.
0.625 0.1125 0.
0.875 0.1125 0.
1 0.1125 0.
0 0.11875 0.
0.25 0.11875 0.
0.5 0.11875 0.
0.75 0.11875 0.
1 0.11875 0.
0 0.125 0.
0.125 0.125 0.
0.375 0.125 0.
0.625 0.125 0.
0.875 0.125 0.
1 0.125 0.
0 0.13125 0.
0.25 0.13125 0.
0.5 0.13125 0.
0.75 0.13125 0.
1 0.13125 0.
0 0.1375 0.
0.125 0.1375 0.
0.375 0.1375 0.
0.625 0.1375 0.
0.875 0.1375 0.
1 0.1375 0.
0 0.14375 0.
0.25 0.14375 0.
0.5 0.14375 0.
0.75 0.14375 0.
1 0.14375 0.
0 0.15 0.
0.125 0.15 0.
0.375 0.15 0.
0.625 0.15 0.
0.875 0.15 0.
1 0.15 0.
0 0.15625 0.
0.25 0.15625 0.
0.5 0.15625 0.
0.75 0.15625 0.
1 0.15625 0.
0 0.1625 0.
0.125 0.1625 0.
0.375 0.1625 0.
0.625 0.1625 0.
0.875 0.1625 0.
1 0.1625 0.
0 0.16875 0.
0.25 0.16875 0.
0.5 0.16875 0.
0.75 0.16875 0.
1 0.16875 0.
0 0.175 0.
0.125 0.175 0.
0.375 0.175 0.
0.625 0.175 0.
0.875 0.175 0.
1 0.175 0.
0 0.18125 0.
0.25 0.18125 0.
0.5 0.18125 0.
0.75 0.18125 0.
1 0.18125 0.
0 0.1875 0.
0.125 0.1875 0.
0.375 0.1875 0.
0.625 0.1875 0.
0.875 0.1875 0.
1 0.1875 0.
0 0.19375 0.
0.25 0.19375 0.
0.5 0.19375 0.
0.75 0.19375 0.
1 0.19375 0.
0 0.2 0.
0.125 0.2 0.
0.375 0.2 0.
0.625 0.2 0.
0.875 0.2 0.
1 0.2 0.
0 0.20625 0.
0.25 0.20625 0.
0.5 0.20625 0.
0.75 0.20625 0.
1 0.20625 0.
0 0.2125 0.
0.125 0.2125 0.
0.375 0.2125 0.
0.625 0.2125 0.
0.875 0.2125 0.
1 0.2125 0.
0 0.21875 0.
0.25 0.21875 0.
0.5 0.21875 0.
0.75 0.21875 0.
1 0.21875 0.
0 0.225 0.
0.125 0.225 0.
0.375 0.225 0.
0.625 0.225 0.
0.875 0.225 0.
1 0.225 0.
0 0.23125 0.
0.25 0.23125 0.
0.5 0.23125 0.
0.75 0.23125 0.
1 0.23125 0.
0 0.2375 0.
0.125 0.2375 0.
0.375 0.2375 0.
0.625 0.2375 0.
0.875 0.2375 0.
1 0.2375 0.
0 0.24375 0.
0.25 0.24375 0.
0.5 0.24375 0.
0.75 0.24375 0.
1 0.24375 0.
0 0.25 0.
0.125 0.25 0.
0.375 0.25 0.
0.625 0.25 0.
0.875 0.25 0.
1 0.25 0.
0 0.25625 0.
0.25 0.25625 0.
0.5 0.25625 0.
0.75 0.25625 0.
1 0.25625 0.
0 0.2625 0.
0.125 0.2625 0.
0.375 0.2625 0.
0.625 0.2625 0.
0.875 0.2625 0.
1 0.2625 0.
0 0.26875 0.
0.25 0.26875 0.
0.5 0.26875 0.
0.75 0.26875 0.
1 0.26875 0.
0 0.275 0.
0.125 0.275 0.
0.375 0.275 0.
0.625 0.275 0.
0.875 0.275 0.
1 0.275 0.
0 0.28125 0.
0.25 0.28125 0.
0.5 0.28125 0.
0.75 0.28125 0.
1 0.28125 0.
0 0.2875 0.
0.125 0.2875 0.
0.375 0.2875 0.
0.625 0.2875 0.
0.875 0.2875 0.
1 0.2875 0.
0 0.29375 0.
0.25 0.29375 0.
0.5 0.29375 0.
0.75 0.29375 0.
1 0.29375 0.
0 0.3 0.
0.125 0.3 0.
0.375 0.3 0.
0.625 0.3 0.
0.875 0.3 0.
1 0.3 0.
0 0.30625 0.
0.25 0.30625 0.
0.5 0.30625 0.
0.75 0.30625 0.
1 0.30625 0.
0 0.3125 0.
0.125 0.3125 0.
0.375 0.3125 0.
0.625 0.3125 0.
0.875 0.3125 0.
1 0.3125 0.
0 0.31875 0.
0.25 0.31875 0.
0.5 0.31875 0.
0.75 0.31875 0.
1 0.31875 0.
0 0.325 0.
0.125 0.325 0.
0.375 0.325 0.
0.625 0.325 0.
0.875 0.325 0.
1 0.325 0.
0 0.33125 0.
0.25 0.33125 0.
0.5 0.33125 0.
0.75 0.33125 0.
1 0.33125 0.
0 0.3375 0.
0.125 0.3375 0.
0.375 0.3375 0.
0.625 0.3375 0.
0.875 0.3375 0.
1 0.3375 0.
0 0.34375 0.
0.25 0.34375 0.
0.5 0.34375 0.
0.75 0.34375 0.
1 0.34375 0.
0 0.35 0.
0.125 0.35 0.
0.375 0.35 0.
0.625 0.35 0.
0.875 0.35 0.
1 0.35 0.
0 0.35625 0.
0.25 0.35625 0.
0.5 0.35625 0.
0.75 0.35625 0.
1 0.35625 0.
0 0.3625 0.
0.125 0.3625 0.
0.375 0.3625 0.
0.625 0.3625 0.
0.875 0.3625 0.
1 0.3625 0.
0 0.36875 0.
0.25 0.36875 0.
0.5 0.36875 0.
0.75 0.36875 0.
1 0.36875 0.
0 0.375 0.
0.125 0.375 0.
0.375 0.375 0.
0.625 0.375 0.
0.875 0.375 0.
1 0.375 0.
0 0.38125 0.
0.25 0.38125 0.
0.5 0.38125 0.
0.75 0.38125 0.
1 0.38125 0.
0 0.3875 0.
0.125 0.3875 0.
0.375 0.3875 0.
0.625 0.3875 0.
0.875 0.3875 0.
1 0.3875 0.
0 0.39375 0.
0.25 0.39375 0.
0.5 0.39375 0.
0.75 0.39375 0.
1 0.39375 0.
0 0.4 0.
0.125 0.4 0.
0.375 0.4 0.
0.625 0.4 0.
0.875 0.4 0.
1 0.4 0.
0 0.40625 0.
0.25 0.40625 0.
0.5 0.40625 0.
0.75 0.40625 0.
1 0.40625 0.
0 0.4125 0.
0.125 0.4125 0.
0.375 0.4125 0.
0.625 0.4125 0.
0.875 0.4125 0.
1 0.4125 0.
0 0.41875 0.
0.25 0.41875 0.
0.5 0.41875 0.
0.75 0.41875 0.
1 0.41875 0.
0 0.425 0.
0.125 0.425 0.
0.375 0.425 0.
0.625 0.425 0.
0.875 0.425 0.
1 0.425 0.
0 0.43125 0.
0.25 0.43125 0.
0.5 0.43125 0.
0.75 0.43125 0.
1 0.43125 0.
0 0.4375 0.
0.125 0.4375 0.
0.375 0.4375 0.
0.625 0.4375 0.
0.875 0.4375 0.
1 0.4375 0.
0 0.44375 0.
0.25 0.44375 0.
0.5 0.44375 0.
0.75 0.44375 0.
1 0.44375 0.
0 0.45 0.
0.125 0.45 0.
0.375 0.45 0.
0.625 0.45 0.
0.875 0.45 0.
1 0.45 0.
0 0.45625 0.
0.25 0.45625 0.
0.5 0.45625 0.
0.75 0.45625 0.
1 0.45625 0.
0 0.4625 0.
0.125 0.4625 0.
0.375 0.4625 0.
0.625 0.4625 0.
0.875 0.4625 0.
1 0.4625 0.
0 0.46875 0.
0.25 0.46875 0.
0.5 0.46875 0.
0.75 0.46875 0.
1 0.46875 0.
0 0.475 0.
0.125 0.475 0.
0.375 0.475 0.
0.625 0.475 0.
0.875 0.475 0.
1 0.475 0.
0 0.48125 0.
0.25 0.48125 0.
0.5 0.48125 0.
0.75 0.48125 0.
1 0.48125 0.
0 0.4875 0.
0.125 0.4875 0.
0.375 0.4875 0.
0.625 0.4875 0.
0.875 0.4875 0.
1 0.4875 0.
0 0.49375 0.
0.25 0.49375 0.
0.5 0.49375 0.
0.75 0.49375 0.
1 0.49375 0.
0 0.5 0.
0.125 0.5 0.
0.375 0.5 0.
0.625 0.5 0.
0.875 0.5 0.
1 0.5 0.
0 0.50625 0.
0.25 0.50625 0.
0.5 0.50625 0.
0.75 0.50625 0.
1 0.50625 0.
0 0.5125 0.
0.125 0.5125 0.
0.375 0.5125 0.
0.625 0.5125 0.
0.875 0.5125 0.
1 0.5125 0.
0 0.51875 0.
0.25 0.51875 0.
0.5 0.51875 0.
0.75 0.51875 0.
1 0.51875 0.
0 0.525 0.
0.125 0.525 0.
0.375 0.525 0.
0.625 0.525 0.
0.875 0.525 0.
1 0.525 0.
0 0.53125 0.
0.25 0.53125 0.
0.5 0.53125 0.
0.75 0.53125 0.
1 0.53125 0.
0 0.5375 0.
0.125 0.5375 0.
0.375 0.5375 0.
0.625 0.5375 0.
0.875 0.5375 0.
1 0.5375 0.
0 0.54375 0.
0.25 0.54375 0.
0.5 0.54375 0.
0.75 0.54375 0.
1 0.54375 0.
0 0.55 0.
0.125 0.55 0.
0.375 0.55 0.
0.625 0.55 0.
0.875 0.55 0.
1 0.55 0.
0 0.55625 0.
0.25 0.55625 0.
0.5 0.55625 0.
0.75 0.55625 0.
1 0.55625 0.
0 0.5625 0.
0.125 0.5625 0.
0.375 0.5625 0.
0.625 0.5625 0.
0.875 0.5625 0.
1 0.5625 0.
0 0.56875 0.
0.25 0.56875 0.
0.5 0.56875 0.
0.75 0.56875 0.
1 0.56875 0.
0 0.575 0.
0.125 0.575 0.
0.375 0.575 0.
0.625 0.575 0.
0.875 0.575 0.
1 0.575 0.
0 0.58125 0.
0.25 0.58125 0.
0.5 0.58125 0.
0.75 0.58125 0.
1 0.58125 0.
0 0.5875 0.
0.125 0.5875 0.
0.375 0.5875 0.
0.625 0.5875 0.
0.875 0.5875 0.
1 0.5875 0.
0 0.59375 0.
0.25 0.59375 0.
0.5 0.59375 0.
0.75 0.59375 0.
1 0.59375 0.
0 0.6 0.
0.125 0.6 0.
0.375 0.6 0.
0.625 0.6 0.
0.875 0.6 0.
1 0.6 0.
0 0.60625 0.
0.25 0.60625 0.
0.5 0.60625 0.
0.75 0.60625 0.
1 0.60625 0.
0 0.6125 0.
0.125 0.6125 0.
0.375 0.6125 0.
0.625 0.6125 0.
0.875 0.6125 0.
1 0.6125 0.
0 0.61875 0.
0.25 0.61875 0.
0.5 0.61875 0.
0.75 0.61875 0.
1 0.61875 0.
0 0.625 0.
0.125 0.625 0.
0.375 0.625 0.
0.625 0.625 0.
0.875 0.625 0.
1 0.625 0.
0 0.63125 0.
0.25 0.63125 0.
0.5 0.63125 0.
0.75 0.63125 0.
1 0.63125 0.
0 0.6375 0.
0.125 0.6375 0.
0.375 0.6375 0.
0.625 0.6375 0.
0.875 0.6375 0.
1 0.6375 0.
0 0.64375 0.
0.25 0.64375 0.
0.5 0.64375 0.
0.75 0.64375 0.
1 0.64375 0.
0 0.65 0.
0.125 0.65 0.
0.375 0.65 0.
0.625 0.65 0.
0.875 0.65 0.
1 0.65 0.
0 0.65625 0.
0.25 0.65625 0.
0.5 0.65625 0.
0.75 0.65625 0.
1 0.65625 0.
0 0.6625 0.
0.125 0.6625 0.
0.375 0.6625 0.
0.625 0.6625 0.
0.875 0.6625 0.
1 0.6625 0.
0 0.66875 0.
0.25 0.66875 0.
0.5 0.66875 0.
0.75 0.66875 0.
1 0.66875 0.
0 0.675 0.
0.125 0.675 0.
0.375 0.675 0.
0.625 0.675 0.
0.875 0.675 0.
1 0.675 0.
0 0.68125 0.
0.25 0.68125 0.
0.5 0.68125 0.
0.75 0.68125 0.
1 0.68125 0.
0 0.6875 0.
0.125 0.6875 0.
0.375 0.6875 0.
0.625 0.6875 0.
0.875 0.6875 0.
1 0.6875 0.
0 0.69375 0.
0.25 0.69375 0.
0.5 0.69375 0.
0.75 0.69375 0.
1 0.69375 0.
0 0.7 0.
0.125 0.7 0.
0.375 0.7 0.
0.625 0.7 0.
0.875 0.7 0.
1 0.7 0.
0 0.70625 0.
0.25 0.70625 0.
0.5 0.70625 0.
0.75 0.70625 0.
1 0.70625 0.
0 0.7125 0.
0.125 0.7125 0.
0.375 0.7125 0.
0.625 0.7125 0.
0.875 0.7125 0.
1 0.7125 0.
0 0.71875 0.
0.25 0.71875 0.
0.5 0.71875 0.
0.75 0.71875 0.
1 0.71875 0.
0 0.725 0.
0.125 0.725 0.
0.375 0.725 0.
0.625 0.725 0.
0.875 0.725 0.
1 0.725 0.
0 0.73125 0.
0.25 0.73125 0.
0.5 0.73125 0.
0.75 0.73125 0.
1 0.73125 0.
0 0.7375 0.
0.125 0.7375 0.
0.375 0.7375 0.
0.625 0.7375 0.
0.875 0.7375 0.
1 0.7375 0.
0 0.74375 0.
0.25 0.74375 0.
0.5 0.74375 0.
0.75 0.74375 0.
1 0.74375 0.
0 0.75 0.
0.125 0.75 0.
0.375 0.75 0.
0.625 0.75 0.
0.875 0.75 0.
1 0.75 0.
0 0.75625 0.
0.25 0.75625 0.
0.5 0.75625 0.
0.75 0.75625 0.
1 0.75625 0.
0 0.7625 0.
0.125 0.7625 0.
0.375 0.7625 0.
0.625 0.7625 0.
0.875 0.7625 0.
1 0.7625 0.
0 0.76875 0.
0.25 0.76875 0.
0.5 0.76875 0.
0.75 0.76875 0.
1 0.76875 0.
0 0.775 0.
0.125 0.775 0.
0.375 0.775 0.
0.625 0.775 0.
0.875 0.775 0.
1 0.775 0.
0 0.78125 0.
0.25 0.78125 0.
0.5 0.78125 0.
0.75 0.78125 0.
1 0.78125 0.
0 0.7875 0.
0.125 0.7875 0.
0.375 0.7875 0.
0.625 0.7875 0.
0.875 0.7875 0.
1 0.7875 0.
0 0.79375 0.
0.25 0.79375 0.
0.5 0.79375 0.
0.75 0.79375 0.
1 0.79375 0.
0 0.8 0.
0.125 0.8 0.
0.375 0.8 0.
0.625 0.8 0.
0.875 0.8 0.
1 0.8 0.
0 0.80625 0.
0.25 0.80625 0.
0.5 0.80625 0.
0.75 0.80625 0.
1 0.80625 0.
0 0.8125 0.
0.125 0.8125 0.
0.375 0.8125 0.
0.625 0.8125 0.
0.875 0.8125 0.
1 0.8125 0.
0 0.81875 0.
0.25 0.81875 0.
0.5 0.81875 0.
0.75 0.81875 0.
1 0.81875 0.
0 0.825 0.
0.125 0.825 0.
0.375 0.825 0.
0.625 0.825 0.
0.875 0.825 0.
1 0.825 0.
0 0.83125 0.
0.25 0.83125 0.
0.5 0.83125 0.
0.75 0.83125 0.
1 0.83125 0.
0 0.8375 0.
0.125 0.8375 0.
0.375 0.8375 0.
0.625 0.8375 0.
0.875 0.8375 0.
1 0.8375 0.
0 0.84375 0.
0.25 0.84375 0.
0.5 0.84375 0.
0.75 0.84375 0.
1 0.84375 0.
0 0.85 0.
0.125 0.85 0.
0.375 0.85 0.
0.625 0.85 0.
0.875 0.85 0.
1 0.85 0.
0 0.85625 0.
0.25 0.85625 0.
0.5 0.85625 0.
0.75 0.85625 0.
1 0.85625 0.
0 0.8625 0.
0.125 0.8625 0.
0.375 0.8625 0.
0.625 0.8625 0.
0.875 0.8625 0.
1 0.8625 0.
0 0.86875 0.
0.25 0.86875 0.
0.5 0.86875 0.
0.75 0.86875 0.
1 0.86875 0.
0 0.875 0.
0.125 0.875 0.
0.375 0.875 0.
0.625 0.875 0.
0.875 0.875 0.
1 0.875 0.
0 0.88125 0.
0.25 0.88125 0.
0.5 0.88125 0.
0.75 0.88125 0.
1 0.88125 0.
0 0.8875 0.
0.125 0.8875 0.
0.375 0.8875 0.
0.625 0.8875 0.
0.875 0.8875 0.
1 0.8875 0.
0 0.89375 0.
0.25 0.89375 0.
0.5 0.89375 0.
0.75 0.89375 0.
1 0.89375 0.
0 0.9 0.
0.125 0.9 0.
0.375 0.9 0.
0.625 0.9 0.
0.875 0.9 0.
1 0.9 0.
0 0.90625 0.
0.25 0.90625 0.
0.5 0.90625 0.
0.75 0.90625 0.
1 0.90625 0.
0 0.9125 0.
0.125 0.9125 0.
0.375 0.9125 0.
0.625 0.9125 0.
0.875 0.9125 0.
1 0.9125 0.
0 0.91875 0.
0.25 0.91875 0.
0.5 0.91875 0.
0.75 0.91875 0.
1 0.91875 0.
0 0.925 0.
0.125 0.925 0.
0.375 0.925 0.
0.625 0.925 0.
0.875 0.925 0.
1 0.925 0.
0 0.93125 0.
0.25 0.93125 0.
0.5 0.93125 0.
0.75 0.93125 0.
1 0.93125 0.
0 0.9375 0.
0.125 0.9375 0.
0.375 0.9375 0.
0.625 0.9375 0.
0.875 0.9375 0.
1 0.9375 0.
0 0.94375 0.
0.25 0.94375 0.
0.5 0.94375 0.
0.75 0.94375 0.
1 0.94375 0.
0 0.95 0.
0.125 0.95 0.
0.375 0.95 0.
0.625 0.95 0.
0.875 0.95 0.
1 0.95 0.
0 0.95625 0.
0.25 0.95625 0.
0.5 0.95625 0.
0.75 0.95625 0.
1 0.95625 0.
0 0.9625 0.
0.125 0.9625 0.
0.375 0.9625 0.
0.625 0.9625 0.
0.875 0.9625 0.
1 0.9625 0.
0 0.96875 0.
0.25 0.96875 0.
0.5 0.96875 0.
0.75 0.96875 0.
1 0.96875 0.
0 0.975 0.
0.125 0.975 0.
0.375 0.975 0.
0.625 0.975 0.
0.875 0.975 0.
1 0.975 0.
0 0.98125 0.
0.25 0.98125 0.
0.5 0.98125 0.
0.75 0.98125 0.
1 0.98125 0.
0 0.9875 0.
0.125 0.9875 0.
0.375 0.9875 0.
0.625 0.9875 0.
0.875 0.9875 0.
1 0.9875 0.
0 0.99375 0.
0.25 0.99375 0.
0.5 0.99375 0.
0.75 0.99375 0.
1 0.99375 0.
0 1 0.
0.125 1 0.
0.375 1 0.
0.625 1 0.
0.875 1 0.
1 1 0.
3 0 1 6
3 6 12 11
3 1 7 6
3 6 7 12
3 2 8 7
3 7 8 13
3 3 9 8
3 8 9 14
3 4 10 9
3 9 10 15
3 1 2 7
3 7 13 12
3 2 3 8
3 8 14 13
3 3 4 9
3 9 15 14
3 4 5 10
3 10 16 15
3 11 12 17
3 17 23 22
3 12 18 17
3 17 18 23
3 13 19 18
3 18 19 24
3 14 20 19
3 19 20 25
3 15 21 20
3 20 21 26
3 12 13 18
3 18 24 23
3 13 14 19
3 19 25 24
3 14 15 20
3 20 26 25
3 15 16 21
3 21 27 26
3 22 23 28
3 28 34 33
3 23 29 28
3 28 29 34
3 24 30 29
3 29 30 35
3 25 31 30
3 30 31 36
3 26 32 31
3 31 32 37
3 23 24 29
3 29 35 34
3 24 25 30
3 30 36 35
3 25 26 31
3 31 37 36
3 26 27 32
3 32 38 37
3 33 34 39
3 39 45 44
3 34 40 39
3 39 40 45
3 35 41 40
3 40 41 46
3 36 42 41
3 41 42 47
3 37 43 42
3 42 43 48
3 34 35 40
3 40 46 45
3 35 36 41
3 41 47 46
3 36 37 42
3 42 48 47
3 37 38 43
3 43 49 48
3 44 45 50
3 50 56 55
3 45 51 50
3 50 51 56
3 46 52 51
3 51 52 57
3 47 53 52
3 52 53 58
3 48 54 53
3 53 54 59
3 45 46 51
3 51 57 56
3 46 47 52
3 52 58 57
3 47 48 53
3 53 59 58
3 48 49 54
3 54 60 59
3 55 56 61
3 61 67 66
3 56 62 61
3 61 62 67
3 57 63 62
3 62 63 68
3 58 64 63
3 63 64 69
3 59 65 64
3 64 65 70
3 56 57 62
3 62 68 67
3 57 58 63
3 63 69 68
3 58 59 64
3 64 70 69
3 59 60 65
3 65 71 70
3 66 67 72
3 72 78 77
3 67 73 72
3 72 73 78
3 68 74 73
3 73 74 79
3 69 75 74
3 74 75 80
3 70 76 75
3 75 76 81
3 67 68 73
3 73 79 78
3 68 69 74
3 74 80 79
3 69 70 75
3 75 81 80
3 70 71 76
3 76 82 81
3 77 78 83
3 83 89 88
3 78 84 83
3 83 84 89
3 79 85 84
3 84 85 90
3 80 86 85
3 85 86 91
3 81 87 86
3 86 87 92
3 78 79 84
3 84 90 89
3 79 80 85
3 85 91 90
3 80 81 86
3 86 92 91
3 81 82 87
3 87 93 92
3 88 89 94
3 94 100 99
3 89 95 94
3 94 95 100
3 90 96 95
3 95 96 101
3 91 97 96
3 96 97 102
3 92 98 97
3 97 98 103
3 89 90 95
3 95 101 100
3 90 91 96
3 96 102 101
3 91 92 97
3 97 103 102
3 92 93 98
3 98 104 103
3 99 100 105
3 105 111 110
3 100 106 105
3 105 106 111
3 101 107 106
3 106 107 112
3 102 108 107
3 107 108 113
3 103 109 108
3 108 109 114
3 100 101 106
3 106 112 111
3 101 102 107
3 107 113 112
3 102 103 108
3 108 114 113
3 103 104 109
3 109 115 114
3 110 111 116
3 116 122 121
3 111 117 116
3 116 117 122
3 112 118 117
3 117 118 123
3 113 119 118
3 118 119 124
3 114 120 119
3 119 120 125
3 111 112 117
3 117 123 122
3 112 113 118
3 118 124 123
3 113 114 119
3 119 125 124
3 114 115 120
3 120 126 125
3 121 122 127
3 127 133 132
3 122 128 127
3 127 128 133
3 123 129 128
3 128 129 134
3 124 130 129
3 129 130 135
3 125 131 130
3 130 131 136
3 122 123 128
3 128 134 133
3 123 124 129
3 129 135 134
3 124 125 130
3 130 136 135
3 125 126 131
3 131 137 136
3 132 133 138
3 138 144 143
3 133 139 138
3 138 139 144
3 134 140 139
3 139 140 145
3 135 141 140
3 140 141 146
3 136 142 141
3 141 142 147
3 133 134 139
3 139 145 144
3 134 135 140
3 140 146 145
3 135 136 141
3 141 147 146
3 136 137 142
3 142 148 147
3 143 144 149
3 149 155 154
3 144 150 149
3 149 150 155
3 145 151 150
3 150 151 156
3 146 152 151
3 151 152 157
3 147 153 152
3 152 153 158
3 144 145 150
3 150 156 155
3 145 146 151
3 151 157 156
3 146 147 152
3 152 158 157
3 147 148 153
3 153 159 158
3 154 155 160
3 160 166 165
3 155 161 160
3 160 161 166
3 156 162 161
3 161 162 167
3 157 163 162
3 162 163 168
3 158 164 163
3 163 164 169
3 155 156 161
3 161 167 166
3 156 157 162
3 162 168 167
3 157 158 163
3 163 169 168
3 158 159 164
3 164 170 169
3 165 166 171
3 171 177 176
3 166 172 171
3 171 172 177
3 167 173 172
3 172 173 178
3 168 174 173
3 173 174 179
3 169 175 174
3 174 175 180
3 166 167 172
3 172 178 177
3 167 168 173
3 173 179 178
3 168 169 174
3 174 180 179
3 169 170 175
3 175 181 180
3 176 177 182
3 182 188 187
3 177 183 182
3 182 183 188
3 178 184 183
3 183 184 189
3 179 185 184
3 184 185 190
3 180 186 185
3 185 186 191
3 177 178 183
3 183 189 188
3 178 179 184
3 184 190 189
3 179 180 185
3 185 191 190
3 180 181 186
3 186 192 191
3 187 188 193
3 193 199 198
3 188 194 193
3 193 194 199
3 189 195 194
3 194 195 200
3 190 196 195
3 195 196 201
3 191 197 196
3 196 197 202
3 188 189 194
3 194 200 199
3 189 190 195
3 195 201 200
3 190 191 196
3 196 202 201
3 191 192 197
3 197 203 202
3 198 199 204
3 204 210 209
3 199 205 204
3 204 205 210
3 200 206 205
3 205 206 211
3 201 207 206
3 206 207 212
3 202 208 207
3 207 208 213
3 199 200 205
3 205 211 210
3 200 201 206
3 206 212 211
3 201 202 207
3 207 213 212
3 202 203 208
3 208 214 213
3 209 210 215
3 215 221 220
3 210 216 215
3 215 216 221
3 211 217 216
3 216 217 222
3 212 218 217
3 217 218 223
3 213 219 218
3 218 219 224
3 210 211 216
3 216 222 221
3 211 212 217
3 217 223 222
3 212 213 218
3 218 224 223
3 213 214 219
3 219 225 224
3 220 221 226
3 226 232 231
3 221 227 226
3 226 227 232
3 222 228 227
3 227 228 233
3 223 229 228
3 228 229 234
3 224 230 229
3 229 230 235
3 221 222 227
3 227 233 232
3 222 223 228
3 228 234 233
3 223 224 229
3 229 235 234
3 224 225 230
3 230 236 235
3 231 232 237
3 237 243 242
3 232 238 237
3 237 238 243
3 233 239 238
3 238 239 244
3 234 240 239
3 239 240 245
3 235 241 240
3 240 241 246
3 232 233 238
3 238 244 243
3 233 234 239
3 239 245 244
3 234 235 240
3 240 246 245
3 235 236 241
3 241 247 246
3 242 243 248
3 248 254 253
3 243 249 248
3 248 249 254
3 244 250 249
3 249 250 255
3 245 251 250
3 250 251 256
3 246 252 251
3 251 252 257
3 243 244 249
3 249 255 254
3 244 245 250
3 250 256 255
3 245 246 251
3 251 257 256
3 246 247 252
3 252 258 257
3 253 254 259
3 259 265 264
3 254 260 259
3 259 260 265
3 255 261 260
3 260 261 266
3 256 262 261
3 261 262 267
3 257 263 262
3 262 263 268
3 254 255 260
3 260 266 265
3 255 256 261
3 261 267 266
3 256 257 262
3 262 268 267
3 257 258 263
3 263 269 268
3 264 265 270
3 270 276 275
3 265 271 270
3 270 271 276
3 266 272 271
3 271 272 277
3 267 273 272
3 272 273 278
3 268 274 273
3 273 274 279
3 265 266 271
3 271 277 276
3 266 267 272
3 272 278 277
3 267 268 273
3 273 279 278
3 268 269 274
3 274 280 279
3 275 276 281
3 281 287 286
3 276 282 281
3 281 282 287
3 277 283 282
3 282 283 288
3 278 284 283
3 283 284 289
3 279 285 284
3 284 285 290
3 276 277 282
3 282 288 287
3 277 278 283
3 283 289 288
3 278 279 284
3 284 290 289
3 279 280 285
3 285 291 290
3 286 287 292
3 292 298 297
3 287 293 292
3 292 293 298
3 288 294 293
3 293 294 299
3 289 295 294
3 294 295 300
3 290 296 295
3 295 296 301
3 287 288 293
3 293 299 298
3 288 289 294
3 294 300 299
3 289 290 295
3 295 301 300
3 290 291 296
3 296 302 301
3 297 298 303
3 303 309 308
3 298 304 303
3 303 304 309
3 299 305 304
3 304 305 310
3 300 306 305
3 305 306 311
3 301 307 306
3 306 307 312
3 298 299 304
3 304 310 309
3 299 300 305
3 305 311 310
3 300 301 306
3 306 312 311
3 301 302 307
3 307 313 312
3 308 309 314
3 314 320 319
3 309 315 314
3 314 315 320
3 310 316 315
3 315 316 321
3 311 317 316
3 316 317 322
3 312 318 317
3 317 318 323
3 309 310 315
3 315 321 320
3 310 311 316
3 316 322 321
3 311 312 317
3 317 323 322
3 312 313 318
3 318 324 323
3 319 320 325
3 325 331 330
3 320 326 325
3 325 326 331
3 321 327 326
3 326 327 332
3 322 328 327
3 327 328 333
3 323 329 328
3 328 329 334
3 320 321 326
3 326 332 331
3 321 322 327
3 327 333 332
3 322 323 328
3 328 334 333
3 323 324 329
3 329 335 334
3 330 331 336
3 336 342 341
3 331 337 336
3 336 337 342
3 332 338 337
3 337 338 343
3 333 339 338
3 338 339 344
3 334 340 339
3 339 340 345
3 331 332 337
3 337 343 342
3 332 333 338
3 338 344 343
3 333 334 339
3 339 345 344
3 334 335 340
3 340 346 345
3 341 342 347
3 347 353 352
3 342 348 347
3 347 348 353
3 343 349 348
3 348 349 354
3 344 350 349
3 349 350 355
3 345 351 350
3 350 351 356
3 342 343 348
3 348 354 353
3 343 344 349
3 349 355 354
3 344 345 350
3 350 356 355
3 345 346 351
3 351 357 356
3 352 353 358
3 358 364 363
3 353 359 358
3 358 359 364
3 354 360 359
3 359 360 365
3 355 361 360
3 360 361 366
3 356 362 361
3 361 362 367
3 353 354 359
3 359 365 364
3 354 355 360
3 360 366 365
3 355 356 361
3 361 367 366
3 356 357 362
3 362 368 367
3 363 364 369
3 369 375 374
3 364 370 369
3 369 370 375
3 365 371 370
3 370 371 376
3 366 372 371
3 371 372 377
3 367 373 372
3 372 373 378
3 364 365 370
3 370 376 375
3 365 366 371
3 371 377 376
3 366 367 372
3 372 378 377
3 367 368 373
3 373 379 378
3 374 375 380
3 380 386 385
3 375 381 380
3 380 381 386
3 376 382 381
3 381 382 387
3 377 383 382
3 382 383 388
3 378 384 383
3 383 384 389
3 375 376 381
3 381 387 386
3 376 377 382
3 382 388 387
3 377 378 383
3 383 389 388
3 378 379 384
3 384 390 389
3 385 386 391
3 391 397 396
3 386 392 391
3 391 392 397
3 387 393 392
3 392 393 398
3 388 394 393
3 393 394 399
3 389 395 394
3 394 395 400
3 386 387 392
3 392 398 397
3 387 388 393
3 393 399 398
3 388 389 394
3 394 400 399
3 389 390 395
3 395 401 400
3 396 397 402
3 402 408 407
3 397 403 402
3 402 403 408
3 398 404 403
3 403 404 409
3 399 405 404
3 404 405 410
3 400 406 405
3 405 406 411
3 397 398 403
3 403 409 408
3 398 399 404
3 404 410 409
3 399 400 405
3 405 411 410
3 400 401 406
3 406 412 411
3 407 408 413
3 413 419 418
3 408 414 413
3 413 414 419
3 409 415 414
3 414 415 420
3 410 416 415
3 415 416 421
3 411 417 416
3 416 417 422
3 408 409 414
3 414 420 419
3 409 410 415
3 415 421 420
3 410 411 416
3 416 422 421
3 411 412 417
3 417 423 422
3 418 419 424
3 424 430 429
3 419 425 424
3 424 425 430
3 420 426 425
3 425 426 431
3 421 427 426
3 426 427 432
3 422 428 427
3 427 428 433
3 419 420 425
3 425 431 430
3 420 421 426
3 426 432 431
3 421 422 427
3 427 433 432
3 422 423 428
3 428 434 433
3 429 430 435
3 435 441 440
3 430 436 435
3 435 436 441
3 431 437 436
3 436 437 442
3 432 438 437
3 437 438 443
3 433 439 438
3 438 439 444
3 430 431 436
3 436 442 441
3 431 432 437
3 437 443 442
3 432 433 438
3 438 444 443
3 433 434 439
3 439 445 444
3 440 441 446
3 446 452 451
3 441 447 446
3 446 447 452
3 442 448 447
3 447 448 453
3 443 449 448
3 448 449 454
3 444 450 449
3 449 450 455
3 441 442 447
3 447 453 452
3 442 443 448
3 448 454 453
3 443 444 449
3 449 455 454
3 444 445 450
3 450 456 455
3 451 452 457
3 457 463 462
3 452 458 457
3 457 458 463
3 453 459 458
3 458 459 464
3 454 460 459
3 459 460 465
3 455 461 460
3 460 461 466
3 452 453 458
3 458 464 463
3 453 454 459
3 459 465 464
3 454 455 460
3 460 466 465
3 455 456 461
3 461 467 466
3 462 463 468
3 468 474 473
3 463 469 468
3 468 469 474
3 464 470 469
3 469 470 475
3 465 471 470
3 470 471 476
3 466 472 471
3 471 472 477
3 463 464 469
3 469 475 474
3 464 465 470
3 470 476 475
3 465 466 471
3 471 477 476
3 466 467 472
3 472 478 477
3 473 474 479
3 479 485 484
3 474 480 479
3 479 480 485
3 475 481 480
3 480 481 486
3 476 482 481
3 481 482 487
3 477 483 482
3 482 483 488
3 474 475 480
3 480 486 485
3 475 476 481
3 481 487 486
3 476 477 482
3 482 488 487
3 477 478 483
3 483 489 488
3 484 485 490
3 490 496 495
3 485 491 490
3 490 491 496
3 486 492 491
3 491 492 497
3 487 493 492
3 492 493 498
3 488 494 493
3 493 494 499
3 485 486 491
3 491 497 496
3 486 487 492
3 492 498 497
3 487 488 493
3 493 499 498
3 488 489 494
3 494 500 499
3 495 496 501
3 501 507 506
3 496 502 501
3 501 502 507
3 497 503 502
3 502 503 508
3 498 504 503
3 503 504 509
3 499 505 504
3 504 505 510
3 496 497 502
3 502 508 507
3 497 498 503
3 503 509 508
3 498 499 504
3 504 510 509
3 499 500 505
3 505 511 510
3 506 507 512
3 512 518 517
3 507 513 512
3 512 513 518
3 508 514 513
3 513 514 519
3 509 515 514
3 514 515 520
3 510 516 515
3 515 516 521
3 507 508 513
3 513 519 518
3 508 509 514
3 514 520 519
3 509 510 515
3 515 521 520
3 510 511 516
3 516 522 521
3 517 518 523
3 523 529 528
3 518 524 523
3 523 524 529
3 519 525 524
3 524 525 530
3 520 526 525
3 525 526 531
3 521 527 526
3 526 527 532
3 518 519 524
3 524 530 529
3 519 520 525
3 525 531 530
3 520 521 526
3 526 532 531
3 521 522 527
3 527 533 532
3 528 529 534
3 534 540 539
3 529 535 534
3 534 535 540
3 530 536 535
3 535 536 541
3 531 537 536
3 536 537 542
3 532 538 537
3 537 538 543
3 529 530 535
3 535 541 540
3 530 531 536
3 536 542 541
3 531 532 537
3 537 543 542
3 532 533 538
3 538 544 543
3 539 540 545
3 545 551 550
3 540 546 545
3 545 546 551
3 541 547 546
3 546 547 552
3 542 548 547
3 547 548 553
3 543 549 548
3 548 549 554
3 540 541 546
3 546 552 551
3 541 542 547
3 547 553 552
3 542 543 548
3 548 554 553
3 543 544 549
3 549 555 554
3 550 551 556
3 556 562 561
3 551 557 556
3 556 557 562
3 552 558 557
3 557 558 563
3 553 559 558
3 558 559 564
3 554 560 559
3 559 560 565
3 551 552 557
3 557 563 562
3 552 553 558
3 558 564 563
3 553 554 559
3 559 565 564
3 554 555 560
3 560 566 565
3 561 562 567
3 567 573 572
3 562 568 567
3 567 568 573
3 563 569 568
3 568 569 574
3 564 570 569
3 569 570 575
3 565 571 570
3 570 571 576
3 562 563 568
3 568 574 573
3 563 564 569
3 569 575 574
3 564 565 570
3 570 576 575
3 565 566 571
3 571 577 576
3 572 573 578
3 578 584 583
3 573 579 578
3 578 579 584
3 574 580 579
3 579 580 585
3 575 581 580
3 580 581 586
3 576 582 581
3 581 582 587
3 573 574 579
3 579 585 584
3 574 575 580
3 580 586 585
3 575 576 581
3 581 587 586
3 576 577 582
3 582 588 587
3 583 584 589
3 589 595 594
3 584 590 589
3 589 590 595
3 585 591 590
3 590 591 596
3 586 592 591
3 591 592 597
3 587 593 592
3 592 593 598
3 584 585 590
3 590 596 595
3 585 586 591
3 591 597 596
3 586 587 592
3 592 598 597
3 587 588 593
3 593 599 598
3 594 595 600
3 600 606 605
3 595 601 600
3 600 601 606
3 596 602 601
3 601 602 607
3 597 603 602
3 602 603 608
3 598 604 603
3 603 604 609
3 595 596 601
3 601 607 606
3 596 597 602
3 602 608 607
3 597 598 603
3 603 609 608
3 598 599 604
3 604 610 609
3 605 606 611
3 611 617 616
3 606 612 611
3 611 612 617
3 607 613 612
3 612 613 618
3 608 614 613
3 613 614 619
3 609 615 614
3 614 615 620
3 606 607 612
3 612 618 617
3 607 608 613
3 613 619 618
3 608 609 614
3 614 620 619
3 609 610 615
3 615 621 620
3 616 617 622
3 622 628 627
3 617 623 622
3 622 623 628
3 618 624 623
3 623 624 629
3 619 625 624
3 624 625 630
3 620 626 625
3 625 626 631
3 617 618 623
3 623 629 628
3 618 619 624
3 624 630 629
3 619 620 625
3 625 631 630
3 620 621 626
3 626 632 631
3 627 628 633
3 633 639 638
3 628 634 633
3 633 634 639
3 629 635 634
3 634 635 640
3 630 636 635
3 635 636 641
3 631 637 636
3 636 637 642
3 628 629 634
3 634 640 639
3 629 630 635
3 635 641 640
3 630 631 636
3 636 642 641
3 631 632 637
3 637 643 642
3 638 639 644
3 644 650 649
3 639 645 644
3 644 645 650
3 640 646 645
3 645 646 651
3 641 647 646
3 646 647 652
3 642 648 647
3 647 648 653
3 639 640 645
3 645 651 650
3 640 641 646
3 646 652 651
3 641 642 647
3 647 653 652
3 642 643 648
3 648 654 653
3 649 650 655
3 655 661 660
3 650 656 655
3 655 656 661
3 651 657 656
3 656 657 662
3 652 658 657
3 657 658 663
3 653 659 658
3 658 659 664
3 650 651 656
3 656 662 661
3 651 652 657
3 657 663 662
3 652 653 658
3 658 664 663
3 653 654 659
3 659 665 664
3 660 661 666
3 666 672 671
3 661 667 666
3 666 667 672
3 662 668 667
3 667 668 673
3 663 669 668
3 668 669 674
3 664 670 669
3 669 670 675
3 661 662 667
3 667 673 672
3 662 663 668
3 668 674 673
3 663 664 669
3 669 675 674
3 664 665 670
3 670 676 675
3 671 672 677
3 677 683 682
3 672 678 677
3 677 678 683
3 673 679 678
3 678 679 684
3 674 680 679
3 679 680 685
3 675 681 680
3 680 681 686
3 672 673 678
3 678 684 683
3 673 674 679
3 679 685 684
3 674 675 680
3 680 686 685
3 675 676 681
3 681 687 686
3 682 683 688
3 688 694 693
3 683 689 688
3 688 689 694
3 684 690 689
3 689 690 695
3 685 691 690
3 690 691 696
3 686 692 691
3 691 692 697
3 683 684 689
3 689 695 694
3 684 685 690
3 690 696 695
3 685 686 691
3 691 697 696
3 686 687 692
3 692 698 697
3 693 694 699
3 699 705 704
3 694 700 699
3 699 700 705
3 695 701 700
3 700 701 706
3 696 702 701
3 701 702 707
3 697 703 702
3 702 703 708
3 694 695 700
3 700 706 705
3 695 696 701
3 701 707 706
3 696 697 702
3 702 708 707
3 697 698 703
3 703 709 708
3 704 705 710
3 710 716 715
3 705 711 710
3 710 711 716
3 706 712 711
3 711 712 717
3 707 713 712
3 712 713 718
3 708 714 713
3 713 714 719
3 705 706 711
3 711 717 716
3 706 707 712
3 712 718 717
3 707 708 713
3 713 719 718
3 708 709 714
3 714 720 719
3 715 716 721
3 721 727 726
3 716 722 721
3 721 722 727
3 717 723 722
3 722 723 728
3 718 724 723
3 723 724 729
3 719 725 724
3 724 725 730
3 716 717 722
3 722 728 727
3 717 718 723
3 723 729 728
3 718 719 724
3 724 730 729
3 719 720 725
3 725 731 730
3 726 727 732
3 732 738 737
3 727 733 732
3 732 733 738
3 728 734 733
3 733 734 739
3 729 735 734
3 734 735 740
3 730 736 735
3 735 736 741
3 727 728 733
3 733 739 738
3 728 729 734
3 734 740 739
3 729 730 735
3 735 741 740
3 730 731 736
3 736 742 741
3 737 738 743
3 743 749 748
3 738 744 743
3 743 744 749
3 739 745 744
3 744 745 750
3 740 746 745
3 745 746 751
3 741 747 746
3 746 747 752
3 738 739 744
3 744 750 749
3 739 740 745
3 745 751 750
3 740 741 746
3 746 752 751
3 741 742 747
3 747 753 752
3 748 749 754
3 754 760 759
3 749 755 754
3 754 755 760
3 750 756 755
3 755 756 761
3 751 757 756
3 756 757 762
3 752 758 757
3 757 758 763
3 749 750 755
3 755 761 760
3 750 751 756
3 756 762 761
3 751 752 757
3 757 763 762
3 752 753 758
3 758 764 763
3 759 760 765
3 765 771 770
3 760 766 765
3 765 766 771
3 761 767 766
3 766 767 772
3 762 768 767
3 767 768 773
3 763 769 768
3 768 769 774
3 760 761 766
3 766 772 771
3 761 762 767
3 767 773 772
3 762 763 768
3 768 774 773
3 763 764 769
3 769 775 774
3 770 771 776
3 776 782 781
3 771 777 776
3 776 777 782
3 772 778 777
3 777 778 783
3 773 779 778
3 778 779 784
3 774 780 779
3 779 780 785
3 771 772 777
3 777 783 782
3 772 773 778
3 778 784 783
3 773 774 779
3 779 785 784
3 774 775 780
3 780 786 785
3 781 782 787
3 787 793 792
3 782 788 787
3 787 788 793
3 783 789 788
3 788 789 794
3 784 790 789
3 789 790 795
3 785 791 790
3 790 791 796
3 782 783 788
3 788 794 793
3 783 784 789
3 789 795 794
3 784 785 790
3 790 796 795
3 785 786 791
3 791 797 796
3 792 793 798
3 798 804 803
3 793 799 798
3 798 799 804
3 794 800 799
3 799 800 805
3 795 801 800
3 800 801 806
3 796 802 801
3 801 802 807
3 793 794 799
3 799 805 804
3 794 795 800
3 800 806 805
3 795 796 801
3 801 807 806
3 796 797 802
3 802 808 807
3 803 804 809
3 809 815 814
3 804 810 809
3 809 810 815
3 805 811 810
3 810 811 816
3 806 812 811
3 811 812 817
3 807 813 812
3 812 813 818
3 804 805 810
3 810 816 815
3 805 806 811
3 811 817 816
3 806 807 812
3 812 818 817
3 807 808 813
3 813 819 818
3 814 815 820
3 820 826 825
3 815 821 820
3 820 821 826
3 816 822 821
3 821 822 827
3 817 823 822
3 822 823 828
3 818 824 823
3 823 824 829
3 815 816 821
3 821 827 826
3 816 817 822
3 822 828 827
3 817 818 823
3 823 829 828
3 818 819 824
3 824 830 829
3 825 826 831
3 831 837 836
3 826 832 831
3 831 832 837
3 827 833 832
3 832 833 838
3 828 834 833
3 833 834 839
3 829 835 834
3 834 835 840
3 826 827 832
3 832 838 837
3 827 828 833
3 833 839 838
3 828 829 834
3 834 840 839
3 829 830 835
3 835 841 840
3 836 837 842
3 842 848 847
3 837 843 842
3 842 843 848
3 838 844 843
3 843 844 849
3 839 845 844
3 844 845 850
3 840 846 845
3 845 846 851
3 837 838 843
3 843 849 848
3 838 839 844
3 844 850 849
3 839 840 845
3 845 851 850
3 840 841 846
3 846 852 851
3 847 848 853
3 853 859 858
3 848 854 853
3 853 854 859
3 849 855 854
3 854 855 860
3 850 856 855
3 855 856 861
3 851 857 856
3 856 857 862
3 848 849 854
3 854 860 859
3 849 850 855
3 855 861 860
3 850 851 856
3 856 862 861
3 851 852 857
3 857 863 862
3 858 859 864
3 864 870 869
3 859 865 864
3 864 865 870
3 860 866 865
3 865 866 871
3 861 867 866
3 866 867 872
3 862 868 867
3 867 868 873
3 859 860 865
3 865 871 870
3 860 861 866
3 866 872 871
3 861 862 867
3 867 873 872
3 862 863 868
3 868 874 873
3 869 870 875
3 875 881 880
3 870 876 875
3 875 876 881
3 871 877 876
3 876 877 882
3 872 878 877
3 877 878 883
3 873 879 878
3 878 879 884
3 870 871 876
3 876 882 881
3 871 872 877
3 877 883 882
3 872 873 878
3 878 884 883
3 873 874 879
3 879 885 884
